<svg width="371" height="149" viewBox="0 0 371 149" fill="none" xmlns="http://www.w3.org/2000/svg">
    <path d="M83.1914 125.145C83.5226 126.381 82.7899 127.656 81.5414 127.936C73.5598 129.728 65.2745 129.766 57.2603 128.036C48.4903 126.144 40.2973 122.19 33.3598 116.501C26.4223 110.812 20.9398 103.552 17.3665 95.3224C13.7932 87.0929 12.2318 78.1305 12.8116 69.1774C13.3914 60.2243 16.0957 51.5382 20.7007 43.8383C25.3057 36.1384 31.6787 29.6464 39.2921 24.8997C46.9054 20.1531 55.54 17.2885 64.4808 16.5431C72.6511 15.862 80.8622 16.9685 88.5461 19.7744C89.7481 20.2133 90.3102 21.5725 89.8223 22.7555L69.4722 72.1023C69.2782 72.5726 69.2444 73.0938 69.3761 73.5852L83.1914 125.145Z" fill="#CAE39D"/>
    <path d="M102.421 18.6848C102.884 17.492 104.229 16.8962 105.402 17.408C113.759 21.055 121.12 26.6764 126.844 33.8029C132.569 40.9294 136.471 49.3294 138.23 58.2761C138.477 59.5316 137.605 60.7163 136.34 60.9115L86.7773 68.5608C85.0146 68.8329 83.6184 67.0948 84.2642 65.4322L102.421 18.6848Z" fill="#E2D686"/>
    <path d="M131.354 69.5944C132.619 69.4001 133.807 70.2678 133.949 71.5394C135.395 84.4623 132.338 97.5166 125.254 108.477C118.17 119.438 107.523 127.587 95.1463 131.576C93.9284 131.968 92.6495 131.242 92.3072 130.009L78.5173 80.3332C78.1461 78.9958 79.0261 77.6342 80.398 77.4235L131.354 69.5944Z" fill="#5F5B53"/>
    <path d="M155.612 21.2635H165.748L173.502 61.6571L175.479 74.6317L180.04 61.6571L185.717 46.1484L191.393 61.6571L195.904 74.6317L197.931 61.6571L205.685 21.2635H215.822L198.438 104.483L189.721 80.8149L185.717 69.5128L181.713 80.8149L172.996 104.483L155.612 21.2635ZM213.295 85.1736C213.295 79.6999 215.221 75.3919 219.073 72.2497C222.958 69.1074 228.669 67.3504 236.203 66.9787V65.9144C236.203 62.7383 235.443 60.2549 233.923 58.4641C232.436 56.6734 230.392 55.778 227.79 55.778C226.439 55.778 225.036 56.0314 223.583 56.5382C222.164 57.0113 220.745 57.6532 219.326 58.4641L215.88 50.355C218.008 49.2738 220.238 48.4798 222.57 47.973C224.901 47.4662 227.013 47.2127 228.905 47.2127C231.338 47.2127 233.551 47.6351 235.544 48.4798C237.538 49.3245 239.244 50.5409 240.663 52.1289C242.082 53.6831 243.181 55.5922 243.958 57.856C244.735 60.1198 245.123 62.6876 245.123 65.5596V102.963L238.484 99.7193C237.2 100.733 235.764 101.527 234.176 102.101C232.622 102.676 230.932 102.963 229.108 102.963C226.81 102.963 224.682 102.507 222.722 101.595C220.796 100.648 219.123 99.3814 217.704 97.7934C216.319 96.2054 215.238 94.3301 214.461 92.1677C213.684 90.0053 213.295 87.6739 213.295 85.1736ZM222.468 85.3256C222.468 86.5758 222.654 87.7415 223.026 88.8227C223.398 89.8701 223.921 90.7993 224.597 91.6102C225.273 92.3873 226.084 92.9955 227.03 93.4347C227.976 93.874 229.023 94.0936 230.172 94.0936C231.355 94.0936 232.487 93.874 233.568 93.4347C234.649 92.9955 235.528 92.438 236.203 91.7622V75.0878C234.041 75.0541 232.115 75.2737 230.426 75.7467C228.736 76.186 227.3 76.8617 226.118 77.774C224.935 78.6525 224.023 79.7337 223.381 81.0176C222.773 82.2678 222.468 83.7038 222.468 85.3256ZM250.706 47.2127L258.308 52.6357C259.051 51.8924 259.896 51.1997 260.842 50.5578C261.788 49.9158 262.785 49.3583 263.832 48.8852C264.88 48.4122 265.944 48.0405 267.025 47.7702C268.106 47.4999 269.188 47.3648 270.269 47.3648C275.675 47.3648 279.746 49.0711 282.483 52.4837C285.22 55.8625 286.588 60.7448 286.588 67.1308V102H277.567V67.2321C277.567 63.752 276.858 61.0996 275.438 59.2751C274.053 57.4505 271.992 56.5382 269.255 56.5382C267.633 56.5382 265.978 56.9437 264.288 57.7546C262.633 58.5317 261.112 59.765 259.727 61.4544V102H250.706V47.2127ZM292.019 47.2127L299.621 52.6357C300.364 51.8924 301.209 51.1997 302.155 50.5578C303.101 49.9158 304.098 49.3583 305.145 48.8852C306.193 48.4122 307.257 48.0405 308.338 47.7702C309.419 47.4999 310.501 47.3648 311.582 47.3648C316.988 47.3648 321.059 49.0711 323.796 52.4837C326.533 55.8625 327.902 60.7448 327.902 67.1308V102H318.88V67.2321C318.88 63.752 318.171 61.0996 316.751 59.2751C315.366 57.4505 313.305 56.5382 310.568 56.5382C308.946 56.5382 307.291 56.9437 305.601 57.7546C303.946 58.5317 302.425 59.765 301.04 61.4544V102H292.019V47.2127ZM331.254 85.1736C331.254 79.6999 333.18 75.3919 337.032 72.2497C340.917 69.1074 346.627 67.3504 354.162 66.9787V65.9144C354.162 62.7383 353.402 60.2549 351.881 58.4641C350.395 56.6734 348.351 55.778 345.749 55.778C344.397 55.778 342.995 56.0314 341.542 56.5382C340.123 57.0113 338.704 57.6532 337.285 58.4641L333.839 50.355C335.967 49.2738 338.197 48.4798 340.529 47.973C342.86 47.4662 344.972 47.2127 346.864 47.2127C349.297 47.2127 351.51 47.6351 353.503 48.4798C355.497 49.3245 357.203 50.5409 358.622 52.1289C360.041 53.6831 361.139 55.5922 361.916 57.856C362.694 60.1198 363.082 62.6876 363.082 65.5596V102.963L356.443 99.7193C355.159 100.733 353.723 101.527 352.135 102.101C350.581 102.676 348.891 102.963 347.067 102.963C344.769 102.963 342.64 102.507 340.681 101.595C338.755 100.648 337.082 99.3814 335.663 97.7934C334.278 96.2054 333.197 94.3301 332.419 92.1677C331.642 90.0053 331.254 87.6739 331.254 85.1736ZM340.427 85.3256C340.427 86.5758 340.613 87.7415 340.985 88.8227C341.356 89.8701 341.88 90.7993 342.556 91.6102C343.232 92.3873 344.043 92.9955 344.989 93.4347C345.935 93.874 346.982 94.0936 348.131 94.0936C349.313 94.0936 350.445 93.874 351.527 93.4347C352.608 92.9955 353.486 92.438 354.162 91.7622V75.0878C352 75.0541 350.074 75.2737 348.384 75.7467C346.695 76.186 345.259 76.8617 344.076 77.774C342.894 78.6525 341.981 79.7337 341.339 81.0176C340.731 82.2678 340.427 83.7038 340.427 85.3256Z" fill="#5F5B53"/>
    <path d="M178.863 115.884V119.299H168.315V115.884H178.863ZM170.927 111.413H175.749V128.542C175.749 129.066 175.816 129.468 175.95 129.747C176.095 130.026 176.307 130.222 176.586 130.333C176.865 130.434 177.217 130.484 177.641 130.484C177.942 130.484 178.21 130.473 178.445 130.45C178.69 130.417 178.897 130.383 179.064 130.35L179.081 133.9C178.668 134.033 178.222 134.14 177.742 134.218C177.262 134.296 176.731 134.335 176.151 134.335C175.091 134.335 174.164 134.162 173.372 133.816C172.59 133.459 171.988 132.889 171.563 132.108C171.139 131.327 170.927 130.3 170.927 129.027V111.413ZM214.234 119.835V134H209.412V115.884H213.949L214.234 119.835ZM219.692 115.767L219.609 120.237C219.374 120.204 219.09 120.176 218.755 120.153C218.431 120.12 218.135 120.103 217.867 120.103C217.186 120.103 216.595 120.192 216.092 120.371C215.601 120.538 215.188 120.79 214.853 121.125C214.53 121.459 214.284 121.867 214.117 122.347C213.961 122.827 213.871 123.374 213.849 123.988L212.878 123.686C212.878 122.514 212.995 121.437 213.229 120.455C213.464 119.461 213.804 118.596 214.251 117.86C214.708 117.123 215.266 116.554 215.925 116.152C216.584 115.75 217.337 115.549 218.185 115.549C218.453 115.549 218.727 115.571 219.006 115.616C219.285 115.649 219.514 115.7 219.692 115.767ZM258.981 129.915V121.844C258.981 121.264 258.886 120.767 258.696 120.354C258.506 119.93 258.211 119.601 257.809 119.366C257.418 119.132 256.91 119.015 256.285 119.015C255.749 119.015 255.286 119.11 254.895 119.299C254.505 119.478 254.203 119.74 253.991 120.086C253.779 120.421 253.673 120.818 253.673 121.275H248.851C248.851 120.505 249.03 119.774 249.387 119.082C249.744 118.39 250.263 117.781 250.944 117.257C251.625 116.721 252.434 116.302 253.372 116.001C254.321 115.7 255.381 115.549 256.553 115.549C257.959 115.549 259.21 115.783 260.303 116.252C261.397 116.721 262.257 117.424 262.882 118.362C263.518 119.299 263.836 120.472 263.836 121.878V129.63C263.836 130.623 263.898 131.438 264.02 132.075C264.143 132.7 264.322 133.247 264.556 133.715V134H259.684C259.45 133.509 259.271 132.895 259.148 132.158C259.037 131.41 258.981 130.663 258.981 129.915ZM259.617 122.966L259.651 125.695H256.955C256.319 125.695 255.766 125.768 255.297 125.913C254.828 126.058 254.443 126.265 254.142 126.533C253.841 126.789 253.617 127.091 253.472 127.437C253.338 127.783 253.271 128.162 253.271 128.575C253.271 128.988 253.366 129.362 253.556 129.697C253.746 130.021 254.019 130.277 254.376 130.467C254.734 130.646 255.152 130.735 255.632 130.735C256.358 130.735 256.988 130.59 257.524 130.3C258.06 130.01 258.473 129.652 258.763 129.228C259.064 128.804 259.221 128.402 259.232 128.023L260.504 130.065C260.326 130.523 260.08 130.997 259.768 131.489C259.466 131.98 259.081 132.443 258.612 132.878C258.144 133.302 257.58 133.654 256.921 133.933C256.263 134.201 255.481 134.335 254.577 134.335C253.428 134.335 252.384 134.106 251.446 133.648C250.52 133.18 249.783 132.538 249.236 131.723C248.7 130.897 248.433 129.959 248.433 128.91C248.433 127.961 248.611 127.119 248.968 126.382C249.326 125.645 249.85 125.026 250.542 124.523C251.245 124.01 252.122 123.625 253.171 123.368C254.22 123.1 255.437 122.966 256.821 122.966H259.617ZM302.84 130.568C303.432 130.568 303.956 130.456 304.414 130.233C304.872 129.998 305.229 129.675 305.486 129.262C305.753 128.838 305.893 128.341 305.904 127.772H310.442C310.43 129.044 310.09 130.177 309.42 131.17C308.751 132.153 307.852 132.928 306.725 133.498C305.597 134.056 304.336 134.335 302.941 134.335C301.534 134.335 300.306 134.1 299.257 133.632C298.219 133.163 297.354 132.515 296.662 131.689C295.97 130.852 295.451 129.881 295.105 128.776C294.759 127.66 294.586 126.466 294.586 125.193V124.708C294.586 123.424 294.759 122.23 295.105 121.125C295.451 120.008 295.97 119.037 296.662 118.211C297.354 117.374 298.219 116.721 299.257 116.252C300.295 115.783 301.512 115.549 302.907 115.549C304.392 115.549 305.692 115.834 306.808 116.403C307.936 116.972 308.817 117.787 309.454 118.847C310.101 119.897 310.43 121.141 310.442 122.581H305.904C305.893 121.978 305.765 121.431 305.519 120.94C305.285 120.449 304.939 120.059 304.481 119.768C304.035 119.467 303.482 119.316 302.823 119.316C302.12 119.316 301.545 119.467 301.099 119.768C300.652 120.059 300.306 120.46 300.061 120.974C299.815 121.476 299.642 122.051 299.542 122.698C299.452 123.335 299.408 124.004 299.408 124.708V125.193C299.408 125.896 299.452 126.572 299.542 127.219C299.631 127.866 299.799 128.441 300.044 128.944C300.301 129.446 300.652 129.842 301.099 130.132C301.545 130.423 302.126 130.568 302.84 130.568ZM345.862 108.266V134H341.04V108.266H345.862ZM357.281 115.884L349.412 124.858L345.193 129.128L343.435 125.645L346.783 121.392L351.488 115.884H357.281ZM352.275 134L346.917 125.628L350.249 122.715L357.834 134H352.275Z" fill="#5F5B53"/>
</svg>
