<?xml version="1.0" standalone="no"?>
<!DOCTYPE svg PUBLIC "-//W3C//DTD SVG 20010904//EN"
 "http://www.w3.org/TR/2001/REC-SVG-20010904/DTD/svg10.dtd">
<svg version="1.0" xmlns="http://www.w3.org/2000/svg"
 width="960.000000pt" height="960.000000pt" viewBox="0 0 960.000000 960.000000"
 preserveAspectRatio="xMidYMid meet">
<metadata>
Created by potrace 1.14, written by Peter Selinger 2001-2017
</metadata>
<g transform="translate(0.000000,960.000000) scale(0.100000,-0.100000)"
fill="#000000" stroke="none">
<path d="M4049 8426 c-2 -3 -42 -7 -89 -10 -47 -3 -94 -7 -105 -10 -11 -2 -45
-7 -76 -10 -31 -4 -67 -9 -80 -12 -74 -15 -121 -24 -127 -22 -4 1 -14 -2 -22
-5 -8 -4 -46 -14 -85 -22 -91 -20 -218 -55 -265 -72 -8 -3 -19 -7 -25 -9 -21
-5 -111 -37 -140 -49 -16 -7 -57 -23 -90 -36 -33 -12 -63 -27 -66 -32 -3 -5
-9 -8 -13 -8 -18 2 -268 -118 -274 -131 -2 -5 -8 -8 -13 -8 -9 0 -180 -99
-189 -109 -6 -8 -122 -85 -135 -90 -14 -6 -180 -136 -260 -205 -71 -61 -277
-264 -350 -346 -75 -84 -265 -333 -265 -348 0 -4 -9 -18 -20 -32 -30 -38 -63
-89 -96 -150 -16 -30 -32 -57 -35 -60 -7 -6 -137 -269 -161 -325 -59 -141
-138 -363 -153 -429 -2 -12 -12 -48 -20 -81 -9 -33 -18 -69 -20 -80 -3 -11 -7
-31 -11 -45 -10 -44 -22 -104 -28 -145 -4 -22 -8 -51 -11 -65 -2 -14 -7 -50
-11 -80 -3 -30 -8 -68 -10 -85 -24 -189 -23 -656 1 -695 6 -9 4 -11 -5 -5 -8
5 -11 4 -7 -1 5 -9 16 -71 22 -129 11 -96 17 -140 21 -146 2 -4 7 -27 10 -51
3 -24 8 -50 10 -58 3 -8 8 -26 10 -40 5 -23 33 -132 69 -261 8 -31 26 -86 39
-122 14 -35 22 -67 19 -71 -4 -3 -2 -6 4 -6 6 0 14 -12 18 -27 3 -15 14 -45
24 -68 10 -22 26 -60 36 -85 36 -86 139 -286 196 -382 59 -99 130 -209 139
-218 3 -3 17 -21 30 -40 22 -32 57 -77 138 -180 103 -130 350 -374 504 -497
283 -227 547 -381 898 -526 47 -19 95 -37 105 -39 11 -1 22 -5 25 -8 5 -6 214
-71 290 -91 47 -12 65 -16 114 -25 16 -2 33 -7 38 -10 5 -4 22 -7 36 -9 15 -2
68 -10 117 -18 50 -9 109 -18 133 -21 24 -3 48 -9 54 -12 7 -5 8 -2 3 6 -6 9
-4 11 4 5 15 -9 68 -14 198 -19 51 -2 96 -7 102 -10 5 -4 12 -2 16 4 4 7 12 7
24 0 10 -5 21 -6 25 -3 5 6 65 8 84 3 4 -1 12 -1 17 0 6 1 44 3 85 5 90 4 275
21 275 25 0 1 14 3 30 4 17 2 50 7 75 11 25 4 54 9 65 11 28 4 108 22 130 28
6 2 21 6 35 10 29 8 67 59 76 102 3 19 -8 80 -31 169 -20 77 -38 147 -40 155
-3 8 -12 42 -21 75 -9 33 -17 65 -18 72 -1 7 -5 16 -9 19 -4 4 -7 19 -7 34 0
15 -3 30 -7 34 -4 3 -8 15 -10 24 -1 10 -10 45 -19 78 -9 32 -24 91 -34 129
-10 39 -26 97 -35 130 -9 33 -18 67 -20 75 -2 8 -4 17 -6 20 -1 3 -3 10 -4 15
-1 6 -7 30 -14 55 -8 25 -14 50 -15 55 -2 6 -8 30 -15 55 -7 25 -14 52 -16 60
-2 8 -10 40 -19 71 -9 31 -18 65 -20 75 -2 11 -11 44 -20 75 -9 31 -19 67 -22
80 -9 40 -12 54 -14 54 -2 0 -5 14 -14 53 -3 12 -7 26 -10 30 -3 5 -7 19 -10
33 -8 39 -13 61 -31 124 -32 114 -44 162 -51 192 -2 12 -9 34 -14 48 -5 14 -8
25 -6 25 2 0 -3 21 -11 48 -13 44 -51 178 -58 212 -7 29 -105 396 -120 445
-15 53 -63 233 -70 263 -2 9 -15 60 -28 112 l-25 95 20 50 c11 28 21 55 22 60
2 6 11 28 20 50 34 78 85 201 105 250 10 28 27 68 37 90 10 22 19 45 20 50 3
14 166 404 200 480 10 22 19 46 20 53 1 8 10 30 19 50 9 20 21 47 26 60 5 12
13 32 19 45 5 12 21 51 35 87 25 61 44 107 65 155 5 11 30 72 56 135 45 112
58 143 89 214 8 19 15 37 15 41 0 4 7 21 15 38 34 74 85 202 85 214 0 7 5 13
11 13 6 0 9 7 5 15 -3 8 -2 15 2 15 7 0 44 94 42 106 -1 4 2 10 7 13 8 5 68
147 68 161 0 3 3 10 7 15 3 6 54 127 112 270 127 307 134 325 147 348 14 26
14 100 -1 127 -22 41 -67 76 -110 84 -8 2 -22 6 -30 9 -25 9 -173 55 -205 63
-16 4 -34 9 -40 10 -5 2 -23 6 -40 10 -16 3 -37 8 -45 11 -18 7 -27 9 -65 16
-16 3 -82 14 -145 26 -126 22 -186 30 -270 38 -71 6 -536 14 -541 9z"/>
<path d="M6415 8373 c-28 -5 -69 -42 -87 -78 -9 -16 -34 -77 -56 -135 -23 -58
-46 -118 -53 -135 -7 -16 -13 -34 -15 -40 -1 -5 -8 -23 -15 -40 -7 -16 -13
-32 -14 -35 -2 -7 -15 -40 -25 -65 -4 -11 -12 -31 -18 -45 -7 -14 -42 -106
-80 -205 -38 -99 -72 -189 -77 -200 -5 -11 -9 -22 -10 -25 -11 -33 -69 -178
-86 -217 -11 -24 -19 -47 -19 -51 0 -9 -42 -117 -66 -169 -8 -17 -14 -34 -14
-37 0 -8 -66 -179 -90 -231 -9 -22 -21 -51 -24 -65 -4 -14 -11 -34 -16 -45 -5
-11 -22 -54 -38 -95 -16 -41 -33 -84 -37 -95 -5 -11 -9 -22 -9 -25 -4 -16 -41
-107 -46 -115 -4 -5 -13 -28 -20 -50 -7 -22 -18 -53 -26 -70 -15 -36 -98 -248
-99 -255 -2 -14 -107 -279 -120 -303 -8 -16 -15 -36 -15 -46 0 -9 -4 -21 -9
-27 -28 -30 -52 -174 -29 -174 4 0 8 -6 8 -12 1 -24 38 -58 78 -72 22 -8 42
-13 44 -11 1 2 26 6 53 10 28 3 68 8 90 12 22 3 50 6 63 6 12 1 22 5 22 10 0
4 3 6 8 4 4 -3 32 -1 62 4 30 5 71 11 90 14 19 3 49 7 65 10 62 11 91 15 135
20 25 3 56 8 70 10 28 6 67 13 125 20 22 3 54 8 70 11 17 3 46 7 65 10 19 2
58 8 85 14 28 5 70 12 95 15 25 4 61 9 80 11 19 3 49 7 65 9 17 2 30 4 30 5 0
2 25 6 80 14 63 8 103 15 135 22 14 3 43 7 65 9 22 2 54 6 70 8 34 7 203 34
255 42 19 2 49 7 65 11 17 3 46 7 65 9 19 2 46 6 60 9 27 5 100 16 140 20 14
2 39 6 55 10 17 3 46 8 65 10 19 3 80 12 135 21 55 9 118 19 140 21 22 3 51 7
65 10 27 5 56 10 123 19 23 3 82 12 131 21 49 8 103 16 120 19 83 12 118 31
143 79 22 43 21 57 -22 251 -14 62 -20 84 -27 105 -11 31 -72 225 -73 230 0 5
-22 63 -35 95 -59 140 -79 185 -122 275 -28 58 -54 107 -59 108 -5 2 -9 10 -9
17 0 8 -18 43 -40 77 -22 35 -40 69 -40 76 0 6 -4 12 -8 12 -5 0 -14 10 -21
23 -26 51 -135 210 -156 227 -8 7 -15 18 -15 25 0 8 -3 15 -8 17 -4 2 -36 39
-72 83 -146 180 -356 389 -527 522 -15 12 -37 29 -48 38 -25 19 -115 85 -145
105 -12 8 -28 21 -36 28 -7 6 -15 12 -18 12 -2 0 -51 29 -108 65 -57 36 -109
65 -115 65 -7 0 -13 5 -13 10 0 6 -6 10 -14 10 -8 0 -22 8 -32 18 -10 9 -18
15 -18 13 -1 -2 -53 21 -116 51 -111 54 -162 69 -205 61z"/>
<path d="M8086 5143 c-3 -3 -22 -7 -43 -9 -34 -3 -60 -7 -123 -18 -31 -6 -94
-15 -140 -21 -19 -3 -44 -7 -55 -9 -18 -3 -98 -15 -150 -22 -11 -1 -20 -3 -20
-4 0 -1 -13 -4 -30 -5 -16 -2 -43 -5 -60 -9 -33 -6 -82 -13 -135 -21 -19 -2
-44 -6 -55 -8 -17 -4 -92 -15 -145 -22 -8 -1 -35 -6 -60 -10 -25 -4 -57 -8
-71 -10 -14 -1 -30 -4 -35 -7 -5 -3 -21 -5 -36 -4 -16 1 -28 -1 -28 -4 0 -3
-10 -6 -22 -6 -13 -1 -41 -4 -63 -8 -22 -4 -60 -9 -85 -13 -71 -9 -85 -11 -85
-13 0 -1 -13 -3 -30 -5 -88 -12 -119 -16 -124 -19 -3 -2 -28 -6 -56 -10 -27
-3 -61 -8 -75 -10 -57 -10 -177 -28 -205 -32 -16 -1 -41 -5 -55 -8 -24 -4 -85
-13 -140 -21 -61 -8 -257 -39 -320 -51 -19 -3 -48 -7 -65 -9 -16 -1 -46 -6
-65 -9 -19 -4 -51 -9 -70 -11 -19 -2 -35 -5 -35 -5 0 -1 -11 -3 -25 -5 -27 -3
-76 -11 -125 -19 -16 -2 -50 -8 -75 -11 -25 -4 -54 -9 -65 -11 -11 -2 -40 -7
-65 -10 -107 -13 -128 -20 -158 -48 -54 -48 -60 -91 -31 -199 6 -23 12 -46 14
-52 1 -5 4 -17 7 -25 8 -22 38 -131 44 -159 3 -14 7 -28 10 -33 3 -5 8 -21 11
-36 7 -36 9 -44 16 -62 4 -8 8 -26 9 -40 2 -14 7 -28 12 -31 5 -4 9 -18 9 -33
0 -14 3 -26 7 -26 5 0 7 -8 6 -17 -2 -10 1 -25 5 -33 7 -12 72 -244 84 -299 2
-9 15 -53 28 -98 14 -46 23 -83 20 -83 -2 0 1 -8 6 -18 6 -11 12 -30 15 -43 3
-13 19 -73 36 -134 17 -60 33 -117 35 -125 2 -8 13 -45 24 -83 11 -37 20 -71
21 -75 3 -21 13 -58 19 -67 3 -5 6 -17 6 -25 1 -8 6 -31 12 -50 26 -82 53
-177 57 -200 5 -28 50 -186 67 -238 6 -18 12 -44 15 -58 2 -14 11 -44 18 -67
8 -23 17 -55 21 -72 9 -41 12 -52 29 -110 8 -27 26 -93 41 -145 14 -52 28
-102 32 -110 3 -8 7 -22 9 -31 7 -35 33 -126 43 -151 6 -16 9 -28 6 -28 -2 0
2 -18 10 -40 8 -22 12 -40 8 -40 -3 0 -1 -6 4 -13 6 -6 13 -28 17 -48 12 -66
79 -118 146 -114 19 1 36 3 38 5 1 1 5 3 10 5 4 1 16 5 27 9 75 29 93 34 99
29 3 -4 6 -1 6 5 0 7 3 11 8 10 4 0 16 3 27 7 11 4 40 16 65 25 100 39 317
144 395 192 17 10 37 21 45 25 8 4 52 31 98 60 45 29 87 53 92 53 4 0 10 4 12
8 2 4 25 23 53 42 27 19 55 40 61 45 7 6 24 19 39 29 14 11 36 28 48 38 12 10
27 21 32 25 84 64 425 390 425 407 0 3 8 14 18 24 9 10 35 40 57 66 22 27 46
55 53 62 6 7 12 17 12 23 0 6 4 11 8 11 5 0 30 32 57 71 27 39 55 77 62 85 8
7 13 16 12 20 0 3 7 16 17 28 11 11 26 35 34 51 8 17 18 32 21 35 11 9 109
187 109 198 0 6 3 12 8 14 7 3 101 192 107 213 2 10 29 76 45 110 5 11 21 54
35 95 15 41 29 82 32 90 4 8 7 17 8 20 1 3 4 12 8 20 3 8 11 35 17 60 6 25 18
64 26 87 7 24 16 57 19 75 3 17 8 35 10 39 3 4 7 26 10 49 3 24 8 46 10 50 3
4 7 25 10 46 3 22 8 50 11 64 8 32 11 54 18 110 4 25 8 56 11 70 24 137 25
701 1 810 -10 48 -40 87 -76 102 -30 12 -96 19 -104 11z"/>
</g>
</svg>
